<svg width="111" height="21" viewBox="0 0 111 21" fill="none" xmlns="http://www.w3.org/2000/svg">
<path d="M7.11574 2.20807L7.11554 2.20858L0.266187 16.0788L0.26617 16.0789C0.0641818 16.4876 0.473724 16.9307 0.88074 16.7413C1.11256 16.6326 1.34635 16.521 1.58203 16.4085C3.46256 15.511 5.46301 14.5562 7.53542 14.5625H7.53568C9.6134 14.5731 11.7163 15.5698 13.6157 16.4701C13.8088 16.5616 13.9997 16.6522 14.1884 16.7405C14.5937 16.9301 15.0043 16.4879 14.8028 16.0783L7.9547 2.20857L7.95444 2.20807C7.91524 2.12786 7.85534 2.06047 7.78131 2.0134C7.70728 1.96633 7.62198 1.94141 7.53509 1.94141C7.44819 1.94141 7.36296 1.96633 7.28893 2.0134C7.2149 2.06047 7.15494 2.12786 7.11574 2.20807Z" fill="white"/>
<path d="M17.632 16.5197L17.6322 16.5193L24.4815 2.64896C24.6835 2.24022 24.274 1.79709 23.8669 1.9865C23.6351 2.09518 23.4014 2.20677 23.1656 2.31925C21.2851 3.21678 19.2847 4.17156 17.2122 4.16536C15.1345 4.15473 13.0314 3.15801 11.1319 2.25768C10.9389 2.16617 10.7479 2.07566 10.5594 1.98728C10.1539 1.79779 9.74334 2.23993 9.94493 2.64951L16.793 16.5193L16.7932 16.5197C16.8324 16.5999 16.8923 16.6673 16.9664 16.7144C17.0405 16.7615 17.1257 16.7864 17.2126 16.7864C17.2995 16.7864 17.3847 16.7615 17.4588 16.7144C17.5329 16.6673 17.5928 16.5999 17.632 16.5197Z" fill="white"/>
<path d="M36.7521 4.34766C38.0787 4.34766 39.1533 4.75229 39.9758 5.56154C40.7984 6.35752 41.2096 7.51171 41.2096 9.02408V15.4517H39.4187V9.28278C39.4187 8.19493 39.1467 7.36578 38.6028 6.79532C38.0588 6.21159 37.3159 5.91973 36.374 5.91973C35.4188 5.91973 34.656 6.21822 34.0856 6.81522C33.5284 7.41221 33.2498 8.28116 33.2498 9.42207V15.4517H31.4389V4.54665H33.2498V6.09882C33.608 5.54163 34.0922 5.11047 34.7024 4.80535C35.326 4.50022 36.0092 4.34766 36.7521 4.34766Z" fill="white"/>
<path d="M43.4911 9.95997C43.4911 8.84559 43.7166 7.87051 44.1677 7.03473C44.6187 6.18566 45.2356 5.52898 46.0183 5.06465C46.8143 4.60033 47.6965 4.36816 48.665 4.36816C49.6202 4.36816 50.4493 4.57379 51.1524 4.98505C51.8556 5.39631 52.3796 5.9137 52.7245 6.53724V4.54726H54.5553V15.4523H52.7245V13.4225C52.3663 14.0593 51.829 14.5899 51.1126 15.0145C50.4095 15.4257 49.587 15.6314 48.6451 15.6314C47.6766 15.6314 46.8011 15.3926 46.0183 14.915C45.2356 14.4374 44.6187 13.7674 44.1677 12.9051C43.7166 12.0428 43.4911 11.0611 43.4911 9.95997ZM52.7245 9.97987C52.7245 9.15735 52.5587 8.44097 52.227 7.83071C51.8954 7.22046 51.4443 6.75613 50.8738 6.43774C50.3167 6.10607 49.6998 5.94024 49.0232 5.94024C48.3466 5.94024 47.7297 6.09943 47.1725 6.41784C46.6153 6.73623 46.1709 7.20056 45.8392 7.81081C45.5076 8.42107 45.3418 9.13745 45.3418 9.95997C45.3418 10.7958 45.5076 11.5254 45.8392 12.1489C46.1709 12.7592 46.6153 13.2301 47.1725 13.5618C47.7297 13.8802 48.3466 14.0394 49.0232 14.0394C49.6998 14.0394 50.3167 13.8802 50.8738 13.5618C51.4443 13.2301 51.8954 12.7592 52.227 12.1489C52.5587 11.5254 52.7245 10.8024 52.7245 9.97987Z" fill="white"/>
<path d="M72.1424 4.54688L68.7395 15.4519H66.869L64.2421 6.79555L61.6153 15.4519H59.7448L56.322 4.54688H58.1727L60.68 13.7007L63.3864 4.54688H65.2371L67.8838 13.7206L70.3514 4.54688H72.1424Z" fill="white"/>
<path d="M78.4366 4.36816C79.3785 4.36816 80.201 4.57379 80.9042 4.98505C81.6205 5.39631 82.1512 5.9137 82.4961 6.53724V4.54726H84.3269V15.6911C84.3269 16.686 84.1146 17.5683 83.6901 18.3377C83.2656 19.1204 82.6553 19.7307 81.8593 20.1685C81.0766 20.6063 80.1612 20.8252 79.1132 20.8252C77.6804 20.8252 76.4864 20.4869 75.5313 19.8103C74.5761 19.1337 74.0122 18.2117 73.8398 17.0442H75.6307C75.8297 17.7076 76.241 18.2382 76.8645 18.6362C77.488 19.0475 78.2376 19.2531 79.1132 19.2531C80.1082 19.2531 80.9174 18.9413 81.5409 18.3178C82.1777 17.6943 82.4961 16.8187 82.4961 15.6911V13.4026C82.1379 14.0394 81.6073 14.5701 80.9042 14.9946C80.201 15.4191 79.3785 15.6314 78.4366 15.6314C77.4682 15.6314 76.5859 15.3926 75.7899 14.915C75.0072 14.4374 74.3903 13.7674 73.9393 12.9051C73.4882 12.0428 73.2627 11.0611 73.2627 9.95997C73.2627 8.84559 73.4882 7.87051 73.9393 7.03473C74.3903 6.18566 75.0072 5.52898 75.7899 5.06465C76.5859 4.60033 77.4682 4.36816 78.4366 4.36816ZM82.4961 9.97987C82.4961 9.15735 82.3303 8.44097 81.9986 7.83071C81.667 7.22046 81.2159 6.75613 80.6455 6.43774C80.0883 6.10607 79.4714 5.94024 78.7948 5.94024C78.1182 5.94024 77.5013 6.09943 76.9441 6.41784C76.3869 6.73623 75.9425 7.20056 75.6109 7.81081C75.2792 8.42107 75.1134 9.13745 75.1134 9.95997C75.1134 10.7958 75.2792 11.5254 75.6109 12.1489C75.9425 12.7592 76.3869 13.2301 76.9441 13.5618C77.5013 13.8802 78.1182 14.0394 78.7948 14.0394C79.4714 14.0394 80.0883 13.8802 80.6455 13.5618C81.2159 13.2301 81.667 12.7592 81.9986 12.1489C82.3303 11.5254 82.4961 10.8024 82.4961 9.97987Z" fill="white"/>
<path d="M86.7108 9.95997C86.7108 8.84559 86.9363 7.87051 87.3874 7.03473C87.8385 6.18566 88.4553 5.52898 89.2381 5.06465C90.0341 4.60033 90.9163 4.36816 91.8847 4.36816C92.8399 4.36816 93.6691 4.57379 94.3722 4.98505C95.0753 5.39631 95.5993 5.9137 95.9442 6.53724V4.54726H97.775V15.4523H95.9442V13.4225C95.586 14.0593 95.0488 14.5899 94.3324 15.0145C93.6293 15.4257 92.8067 15.6314 91.8648 15.6314C90.8964 15.6314 90.0208 15.3926 89.2381 14.915C88.4553 14.4374 87.8385 13.7674 87.3874 12.9051C86.9363 12.0428 86.7108 11.0611 86.7108 9.95997ZM95.9442 9.97987C95.9442 9.15735 95.7784 8.44097 95.4467 7.83071C95.1151 7.22046 94.664 6.75613 94.0936 6.43774C93.5364 6.10607 92.9195 5.94024 92.2429 5.94024C91.5663 5.94024 90.9494 6.09943 90.3922 6.41784C89.8351 6.73623 89.3906 7.20056 89.059 7.81081C88.7273 8.42107 88.5615 9.13745 88.5615 9.95997C88.5615 10.7958 88.7273 11.5254 89.059 12.1489C89.3906 12.7592 89.8351 13.2301 90.3922 13.5618C90.9494 13.8802 91.5663 14.0394 92.2429 14.0394C92.9195 14.0394 93.5364 13.8802 94.0936 13.5618C94.664 13.2301 95.1151 12.7592 95.4467 12.1489C95.7784 11.5254 95.9442 10.8024 95.9442 9.97987Z" fill="white"/>
<path d="M103.044 6.0394V12.467C103.044 12.9976 103.157 13.3757 103.382 13.6013C103.608 13.8135 103.999 13.9197 104.556 13.9197H105.889V15.4519H104.258C103.249 15.4519 102.493 15.2198 101.989 14.7554C101.485 14.2911 101.233 13.5283 101.233 12.467V6.0394H99.8201V4.54693H101.233V1.80078H103.044V4.54693H105.889V6.0394H103.044Z" fill="white"/>
<path d="M109.019 2.77614C108.674 2.77614 108.382 2.65675 108.143 2.41795C107.905 2.17916 107.785 1.88729 107.785 1.54237C107.785 1.19744 107.905 0.90558 108.143 0.666784C108.382 0.427989 108.674 0.308594 109.019 0.308594C109.351 0.308594 109.629 0.427989 109.855 0.666784C110.094 0.90558 110.213 1.19744 110.213 1.54237C110.213 1.88729 110.094 2.17916 109.855 2.41795C109.629 2.65675 109.351 2.77614 109.019 2.77614ZM109.895 4.54721V15.4522H108.084V4.54721H109.895Z" fill="white"/>
</svg>
